<mxfile host="Electron" modified="2023-04-20T10:28:19.307Z" agent="Mozilla/5.0 (X11; Linux x86_64) AppleWebKit/537.36 (KHTML, like Gecko) draw.io/21.1.2 Chrome/106.0.5249.199 Electron/21.4.3 Safari/537.36" etag="_c6ZFAOsCvSLMk1SxmRU" version="21.1.2" type="device">
  <diagram name="Page-1" id="k00i1iQNPX6f4lh2ehVg">
    <mxGraphModel dx="537" dy="299" grid="1" gridSize="10" guides="1" tooltips="1" connect="1" arrows="1" fold="1" page="1" pageScale="1" pageWidth="1100" pageHeight="850" math="0" shadow="0">
      <root>
        <mxCell id="0" />
        <mxCell id="1" parent="0" />
        <mxCell id="2znsQmvZwGZEP0dNajm2-49" value="" style="group" parent="1" vertex="1" connectable="0">
          <mxGeometry x="400" y="260" width="130" height="65" as="geometry" />
        </mxCell>
        <mxCell id="2znsQmvZwGZEP0dNajm2-85" value="&lt;font style=&quot;font-size: 11px;&quot;&gt;B&lt;/font&gt;" style="whiteSpace=wrap;html=1;fillColor=#dae8fc;strokeColor=none;" parent="2znsQmvZwGZEP0dNajm2-49" vertex="1">
          <mxGeometry x="100" y="40" width="20" height="20" as="geometry" />
        </mxCell>
        <mxCell id="2znsQmvZwGZEP0dNajm2-62" value="&lt;font style=&quot;font-size: 11px;&quot;&gt;A&lt;/font&gt;" style="whiteSpace=wrap;html=1;fillColor=#dae8fc;strokeColor=none;" parent="2znsQmvZwGZEP0dNajm2-49" vertex="1">
          <mxGeometry width="30" height="20" as="geometry" />
        </mxCell>
        <mxCell id="2znsQmvZwGZEP0dNajm2-50" value="" style="endArrow=none;html=1;rounded=0;opacity=50;" parent="2znsQmvZwGZEP0dNajm2-49" edge="1">
          <mxGeometry width="50" height="50" relative="1" as="geometry">
            <mxPoint y="60" as="sourcePoint" />
            <mxPoint x="100" y="60" as="targetPoint" />
          </mxGeometry>
        </mxCell>
        <mxCell id="2znsQmvZwGZEP0dNajm2-51" value="" style="endArrow=none;html=1;rounded=0;opacity=50;" parent="2znsQmvZwGZEP0dNajm2-49" edge="1">
          <mxGeometry width="50" height="50" relative="1" as="geometry">
            <mxPoint x="100" y="60" as="sourcePoint" />
            <mxPoint x="100" y="40" as="targetPoint" />
          </mxGeometry>
        </mxCell>
        <mxCell id="2znsQmvZwGZEP0dNajm2-53" value="" style="endArrow=none;html=1;rounded=0;opacity=50;" parent="2znsQmvZwGZEP0dNajm2-49" edge="1">
          <mxGeometry width="50" height="50" relative="1" as="geometry">
            <mxPoint x="120" y="40" as="sourcePoint" />
            <mxPoint x="120" as="targetPoint" />
          </mxGeometry>
        </mxCell>
        <mxCell id="2znsQmvZwGZEP0dNajm2-54" value="" style="endArrow=none;html=1;rounded=0;opacity=50;" parent="2znsQmvZwGZEP0dNajm2-49" edge="1">
          <mxGeometry width="50" height="50" relative="1" as="geometry">
            <mxPoint x="120" as="sourcePoint" />
            <mxPoint x="20" as="targetPoint" />
          </mxGeometry>
        </mxCell>
        <mxCell id="2znsQmvZwGZEP0dNajm2-55" value="" style="endArrow=none;html=1;rounded=0;opacity=50;" parent="2znsQmvZwGZEP0dNajm2-49" edge="1">
          <mxGeometry width="50" height="50" relative="1" as="geometry">
            <mxPoint x="20" as="sourcePoint" />
            <mxPoint x="30" y="20" as="targetPoint" />
          </mxGeometry>
        </mxCell>
        <mxCell id="2znsQmvZwGZEP0dNajm2-56" value="" style="endArrow=none;html=1;rounded=0;opacity=50;" parent="2znsQmvZwGZEP0dNajm2-49" edge="1">
          <mxGeometry width="50" height="50" relative="1" as="geometry">
            <mxPoint x="30" y="20" as="sourcePoint" />
            <mxPoint y="10" as="targetPoint" />
          </mxGeometry>
        </mxCell>
        <mxCell id="2znsQmvZwGZEP0dNajm2-57" value="" style="endArrow=none;html=1;rounded=0;opacity=50;" parent="2znsQmvZwGZEP0dNajm2-49" edge="1">
          <mxGeometry width="50" height="50" relative="1" as="geometry">
            <mxPoint y="10" as="sourcePoint" />
            <mxPoint y="60" as="targetPoint" />
          </mxGeometry>
        </mxCell>
        <mxCell id="2znsQmvZwGZEP0dNajm2-52" value="" style="endArrow=none;html=1;rounded=0;opacity=50;" parent="2znsQmvZwGZEP0dNajm2-49" edge="1">
          <mxGeometry width="50" height="50" relative="1" as="geometry">
            <mxPoint x="100" y="40" as="sourcePoint" />
            <mxPoint x="120" y="40" as="targetPoint" />
          </mxGeometry>
        </mxCell>
        <mxCell id="2znsQmvZwGZEP0dNajm2-86" value="&lt;font style=&quot;font-size: 11px;&quot;&gt;1&lt;/font&gt;" style="text;html=1;align=center;verticalAlign=middle;resizable=0;points=[];autosize=1;strokeColor=none;fillColor=none;fontSize=13;fontFamily=Helvetica;fontColor=none;" parent="2znsQmvZwGZEP0dNajm2-49" vertex="1">
          <mxGeometry x="56" y="-5" width="30" height="30" as="geometry" />
        </mxCell>
        <mxCell id="2znsQmvZwGZEP0dNajm2-87" value="&lt;span style=&quot;color: rgb(0, 0, 0); font-family: Helvetica; font-style: normal; font-variant-ligatures: normal; font-variant-caps: normal; font-weight: 400; letter-spacing: normal; orphans: 2; text-align: center; text-indent: 0px; text-transform: none; widows: 2; word-spacing: 0px; -webkit-text-stroke-width: 0px; background-color: rgb(251, 251, 251); text-decoration-thickness: initial; text-decoration-style: initial; text-decoration-color: initial; float: none; display: inline !important;&quot;&gt;&lt;font style=&quot;font-size: 11px;&quot;&gt;2&lt;/font&gt;&lt;/span&gt;" style="text;whiteSpace=wrap;html=1;" parent="2znsQmvZwGZEP0dNajm2-49" vertex="1">
          <mxGeometry x="51" y="16" width="40" height="40" as="geometry" />
        </mxCell>
        <mxCell id="2znsQmvZwGZEP0dNajm2-88" value="&lt;font style=&quot;font-size: 11px;&quot;&gt;3&lt;/font&gt;" style="text;html=1;align=center;verticalAlign=middle;resizable=0;points=[];autosize=1;strokeColor=none;fillColor=none;fontSize=13;fontFamily=Helvetica;fontColor=none;" parent="2znsQmvZwGZEP0dNajm2-49" vertex="1">
          <mxGeometry x="30" y="35" width="30" height="30" as="geometry" />
        </mxCell>
        <mxCell id="2znsQmvZwGZEP0dNajm2-58" value="" style="endArrow=none;html=1;rounded=0;dashed=1;" parent="1" edge="1">
          <mxGeometry width="50" height="50" relative="1" as="geometry">
            <mxPoint x="400" y="280" as="sourcePoint" />
            <mxPoint x="520" y="280" as="targetPoint" />
          </mxGeometry>
        </mxCell>
        <mxCell id="2znsQmvZwGZEP0dNajm2-60" value="" style="endArrow=none;html=1;rounded=0;dashed=1;" parent="1" edge="1">
          <mxGeometry width="50" height="50" relative="1" as="geometry">
            <mxPoint x="430" y="280" as="sourcePoint" />
            <mxPoint x="430" y="260" as="targetPoint" />
          </mxGeometry>
        </mxCell>
        <mxCell id="2znsQmvZwGZEP0dNajm2-61" value="" style="endArrow=none;html=1;rounded=0;dashed=1;" parent="1" edge="1">
          <mxGeometry width="50" height="50" relative="1" as="geometry">
            <mxPoint x="400" y="300" as="sourcePoint" />
            <mxPoint x="500" y="300" as="targetPoint" />
          </mxGeometry>
        </mxCell>
        <mxCell id="2znsQmvZwGZEP0dNajm2-64" value="" style="endArrow=none;html=1;rounded=0;dashed=1;" parent="1" edge="1">
          <mxGeometry width="50" height="50" relative="1" as="geometry">
            <mxPoint x="500" y="320" as="sourcePoint" />
            <mxPoint x="500" y="300" as="targetPoint" />
          </mxGeometry>
        </mxCell>
        <mxCell id="2znsQmvZwGZEP0dNajm2-89" value="" style="group" parent="1" vertex="1" connectable="0">
          <mxGeometry x="540" y="240" width="150" height="95" as="geometry" />
        </mxCell>
        <mxCell id="2znsQmvZwGZEP0dNajm2-90" value="H" style="text;html=1;align=center;verticalAlign=middle;resizable=0;points=[[0.3,0.6,0,0,0],[0.7,0.6,0,0,0]];autosize=1;strokeColor=none;fillColor=none;fontSize=13;fontFamily=Helvetica;fontColor=none;" parent="2znsQmvZwGZEP0dNajm2-89" vertex="1">
          <mxGeometry x="60" width="30" height="30" as="geometry" />
        </mxCell>
        <mxCell id="2znsQmvZwGZEP0dNajm2-91" value="V" style="text;html=1;align=center;verticalAlign=middle;resizable=0;points=[[0.37,0.7,0,0,0],[0.67,0.3,0,0,0],[0.67,0.7,0,0,0]];autosize=1;strokeColor=none;fillColor=none;fontSize=13;fontFamily=Helvetica;fontColor=none;" parent="2znsQmvZwGZEP0dNajm2-89" vertex="1">
          <mxGeometry x="25" y="30" width="30" height="30" as="geometry" />
        </mxCell>
        <mxCell id="2znsQmvZwGZEP0dNajm2-92" style="edgeStyle=none;shape=connector;rounded=0;orthogonalLoop=1;jettySize=auto;html=1;entryX=0.67;entryY=0.3;entryDx=0;entryDy=0;entryPerimeter=0;labelBackgroundColor=default;strokeColor=default;strokeWidth=0.7;fontFamily=Helvetica;fontSize=13;fontColor=none;endArrow=none;endFill=0;endSize=2;exitX=0.3;exitY=0.6;exitDx=0;exitDy=0;exitPerimeter=0;" parent="2znsQmvZwGZEP0dNajm2-89" source="2znsQmvZwGZEP0dNajm2-90" target="2znsQmvZwGZEP0dNajm2-91" edge="1">
          <mxGeometry relative="1" as="geometry" />
        </mxCell>
        <mxCell id="2znsQmvZwGZEP0dNajm2-93" value="A" style="text;html=1;align=center;verticalAlign=middle;resizable=0;points=[[0.7,0.23,0,0,0]];autosize=1;strokeColor=none;fillColor=none;fontSize=13;fontFamily=Helvetica;fontColor=none;" parent="2znsQmvZwGZEP0dNajm2-89" vertex="1">
          <mxGeometry y="65" width="30" height="30" as="geometry" />
        </mxCell>
        <mxCell id="2znsQmvZwGZEP0dNajm2-94" style="edgeStyle=none;shape=connector;rounded=0;orthogonalLoop=1;jettySize=auto;html=1;entryX=0.7;entryY=0.23;entryDx=0;entryDy=0;entryPerimeter=0;labelBackgroundColor=default;strokeColor=default;strokeWidth=0.7;fontFamily=Helvetica;fontSize=13;fontColor=none;endArrow=none;endFill=0;endSize=2;exitX=0.37;exitY=0.7;exitDx=0;exitDy=0;exitPerimeter=0;" parent="2znsQmvZwGZEP0dNajm2-89" source="2znsQmvZwGZEP0dNajm2-91" target="2znsQmvZwGZEP0dNajm2-93" edge="1">
          <mxGeometry relative="1" as="geometry" />
        </mxCell>
        <mxCell id="2znsQmvZwGZEP0dNajm2-95" value="1" style="text;html=1;align=center;verticalAlign=middle;resizable=0;points=[[0.4,0.27,0,0,0]];autosize=1;strokeColor=none;fillColor=none;fontSize=13;fontFamily=Helvetica;fontColor=none;" parent="2znsQmvZwGZEP0dNajm2-89" vertex="1">
          <mxGeometry x="50" y="65" width="30" height="30" as="geometry" />
        </mxCell>
        <mxCell id="2znsQmvZwGZEP0dNajm2-96" style="edgeStyle=none;shape=connector;rounded=0;orthogonalLoop=1;jettySize=auto;html=1;entryX=0.4;entryY=0.27;entryDx=0;entryDy=0;entryPerimeter=0;labelBackgroundColor=default;strokeColor=default;strokeWidth=0.7;fontFamily=Helvetica;fontSize=13;fontColor=none;endArrow=none;endFill=0;endSize=2;exitX=0.67;exitY=0.7;exitDx=0;exitDy=0;exitPerimeter=0;" parent="2znsQmvZwGZEP0dNajm2-89" source="2znsQmvZwGZEP0dNajm2-91" target="2znsQmvZwGZEP0dNajm2-95" edge="1">
          <mxGeometry relative="1" as="geometry" />
        </mxCell>
        <mxCell id="2znsQmvZwGZEP0dNajm2-97" value="H" style="text;html=1;align=center;verticalAlign=middle;resizable=0;points=[[0.37,0.3,0,0,0],[0.37,0.7,0,0,0],[0.67,0.3,0,0,0],[0.67,0.7,0,0,0]];autosize=1;strokeColor=none;fillColor=none;fontSize=13;fontFamily=Helvetica;fontColor=none;" parent="2znsQmvZwGZEP0dNajm2-89" vertex="1">
          <mxGeometry x="95" y="30" width="30" height="30" as="geometry" />
        </mxCell>
        <mxCell id="2znsQmvZwGZEP0dNajm2-98" style="edgeStyle=none;shape=connector;rounded=0;orthogonalLoop=1;jettySize=auto;html=1;entryX=0.37;entryY=0.3;entryDx=0;entryDy=0;entryPerimeter=0;labelBackgroundColor=default;strokeColor=default;strokeWidth=0.7;fontFamily=Helvetica;fontSize=13;fontColor=none;endArrow=none;endFill=0;endSize=2;exitX=0.7;exitY=0.6;exitDx=0;exitDy=0;exitPerimeter=0;" parent="2znsQmvZwGZEP0dNajm2-89" source="2znsQmvZwGZEP0dNajm2-90" target="2znsQmvZwGZEP0dNajm2-97" edge="1">
          <mxGeometry relative="1" as="geometry" />
        </mxCell>
        <mxCell id="2znsQmvZwGZEP0dNajm2-99" value="&lt;font style=&quot;font-size: 13px;&quot;&gt;2&lt;/font&gt;" style="text;html=1;align=center;verticalAlign=middle;resizable=0;points=[[0.6,0.3,0,0,0]];autosize=1;strokeColor=none;fillColor=none;fontSize=13;fontFamily=Helvetica;fontColor=none;" parent="2znsQmvZwGZEP0dNajm2-89" vertex="1">
          <mxGeometry x="70" y="65" width="30" height="30" as="geometry" />
        </mxCell>
        <mxCell id="2znsQmvZwGZEP0dNajm2-100" style="edgeStyle=none;shape=connector;rounded=0;orthogonalLoop=1;jettySize=auto;html=1;labelBackgroundColor=default;strokeColor=default;strokeWidth=0.7;fontFamily=Helvetica;fontSize=13;fontColor=none;endArrow=none;endFill=0;endSize=2;exitX=0.37;exitY=0.7;exitDx=0;exitDy=0;exitPerimeter=0;entryX=0.6;entryY=0.3;entryDx=0;entryDy=0;entryPerimeter=0;" parent="2znsQmvZwGZEP0dNajm2-89" source="2znsQmvZwGZEP0dNajm2-97" target="2znsQmvZwGZEP0dNajm2-99" edge="1">
          <mxGeometry relative="1" as="geometry" />
        </mxCell>
        <mxCell id="2znsQmvZwGZEP0dNajm2-101" value="V" style="text;html=1;align=center;verticalAlign=middle;resizable=0;points=[[0.4,0.27,0,0,0]];autosize=1;strokeColor=none;fillColor=none;fontSize=13;fontFamily=Helvetica;fontColor=none;" parent="2znsQmvZwGZEP0dNajm2-89" vertex="1">
          <mxGeometry x="120" y="65" width="30" height="30" as="geometry" />
        </mxCell>
        <mxCell id="2znsQmvZwGZEP0dNajm2-102" style="edgeStyle=none;shape=connector;rounded=0;orthogonalLoop=1;jettySize=auto;html=1;entryX=0.4;entryY=0.27;entryDx=0;entryDy=0;entryPerimeter=0;labelBackgroundColor=default;strokeColor=default;strokeWidth=0.7;fontFamily=Helvetica;fontSize=13;fontColor=none;endArrow=none;endFill=0;endSize=2;exitX=0.67;exitY=0.7;exitDx=0;exitDy=0;exitPerimeter=0;" parent="2znsQmvZwGZEP0dNajm2-89" source="2znsQmvZwGZEP0dNajm2-97" target="2znsQmvZwGZEP0dNajm2-101" edge="1">
          <mxGeometry relative="1" as="geometry" />
        </mxCell>
        <mxCell id="2znsQmvZwGZEP0dNajm2-108" value="" style="group" parent="1" vertex="1" connectable="0">
          <mxGeometry x="634" y="328" width="80" height="44" as="geometry" />
        </mxCell>
        <mxCell id="2znsQmvZwGZEP0dNajm2-104" value="3" style="text;html=1;align=center;verticalAlign=middle;resizable=0;points=[[0.7,0.23,0,0,0]];autosize=1;strokeColor=none;fillColor=none;fontSize=13;fontFamily=Helvetica;fontColor=none;" parent="2znsQmvZwGZEP0dNajm2-108" vertex="1">
          <mxGeometry y="14" width="30" height="30" as="geometry" />
        </mxCell>
        <mxCell id="2znsQmvZwGZEP0dNajm2-105" style="edgeStyle=none;shape=connector;rounded=0;orthogonalLoop=1;jettySize=auto;html=1;entryX=0.7;entryY=0.23;entryDx=0;entryDy=0;entryPerimeter=0;labelBackgroundColor=default;strokeColor=default;strokeWidth=0.7;fontFamily=Helvetica;fontSize=13;fontColor=none;endArrow=none;endFill=0;endSize=2;exitX=0.37;exitY=0.7;exitDx=0;exitDy=0;exitPerimeter=0;" parent="2znsQmvZwGZEP0dNajm2-108" target="2znsQmvZwGZEP0dNajm2-104" edge="1">
          <mxGeometry relative="1" as="geometry">
            <mxPoint x="36" as="sourcePoint" />
          </mxGeometry>
        </mxCell>
        <mxCell id="2znsQmvZwGZEP0dNajm2-106" value="B" style="text;html=1;align=center;verticalAlign=middle;resizable=0;points=[[0.4,0.27,0,0,0]];autosize=1;strokeColor=none;fillColor=none;fontSize=13;fontFamily=Helvetica;fontColor=none;" parent="2znsQmvZwGZEP0dNajm2-108" vertex="1">
          <mxGeometry x="50" y="14" width="30" height="30" as="geometry" />
        </mxCell>
        <mxCell id="2znsQmvZwGZEP0dNajm2-107" style="edgeStyle=none;shape=connector;rounded=0;orthogonalLoop=1;jettySize=auto;html=1;entryX=0.4;entryY=0.27;entryDx=0;entryDy=0;entryPerimeter=0;labelBackgroundColor=default;strokeColor=default;strokeWidth=0.7;fontFamily=Helvetica;fontSize=13;fontColor=none;endArrow=none;endFill=0;endSize=2;exitX=0.67;exitY=0.7;exitDx=0;exitDy=0;exitPerimeter=0;" parent="2znsQmvZwGZEP0dNajm2-108" target="2znsQmvZwGZEP0dNajm2-106" edge="1">
          <mxGeometry relative="1" as="geometry">
            <mxPoint x="45" as="sourcePoint" />
          </mxGeometry>
        </mxCell>
      </root>
    </mxGraphModel>
  </diagram>
</mxfile>
